<?xml version="1.0" standalone="no"?><!DOCTYPE svg PUBLIC "-//W3C//DTD SVG 1.1//EN" "http://www.w3.org/Graphics/SVG/1.1/DTD/svg11.dtd"><svg t="1609295863352" class="icon" viewBox="0 0 1024 1024" version="1.1" xmlns="http://www.w3.org/2000/svg" p-id="1772" width="64" height="64" xmlns:xlink="http://www.w3.org/1999/xlink"><defs><style type="text/css"></style></defs><path d="M0 0h1024v1024H0z" fill="#ffffff" fill-opacity=".01" p-id="1773"></path><path d="M512 64c247.424 0 448 200.576 448 448s-200.576 448-448 448S64 759.424 64 512 264.576 64 512 64z m0 64C299.936 128 128 299.936 128 512s171.936 384 384 384 384-171.936 384-384S724.064 128 512 128z m-64 219.808a32 32 0 0 1 17.76 5.344l198.304 132.224a32 32 0 0 1 0 53.248l-198.304 132.224A32 32 0 0 1 416 644.16V379.84a32 32 0 0 1 32-32z" fill="#ffffff" p-id="1774"></path></svg>